# xmcd CD database file generated by Grip 3.0.7
# 
# Track frame offsets:
#       150
#       19201
#       37770
#       55132
#       70092
#       77761
#       92426
#       105703
#       116374
#       129712
#       145339
#       156825
#       170147
#       180967
# 
# Disc length: 2670 seconds
# 
# Revision: 3
# Processed by: cddbd v1.4PL0 Copyright (c) Steve Scherf et al.
# Submitted via: Grip 3.0.7
# 
DISCID=b00a6c0e
DTITLE=Ill-Eagles - Solid Mold [CD2]
DYEAR=1900
DGENRE=Country
TTITLE0=My Town
TTITLE1=Play That Country Music
TTITLE2=Need-a-leaderville
TTITLE3=Phone
TTITLE4=Cat's in the Kettle
TTITLE5=I'm Gonna Miss Him
TTITLE6=Go Away
TTITLE7=Emotionless Guy
TTITLE8=Hang Up and Drive
TTITLE9=Real Big Hams
TTITLE10=Virginia Girls
TTITLE11=Truth About Girls
TTITLE12=Elfiss
TTITLE13=Hell Yeah
EXTD=
EXTT0=
EXTT1=
EXTT2=
EXTT3=
EXTT4=
EXTT5=
EXTT6=
EXTT7=
EXTT8=
EXTT9=
EXTT10=
EXTT11=
EXTT12=
EXTT13=
PLAYORDER=
